<svg version="1.1" id="Layer_1" xmlns="http://www.w3.org/2000/svg" xmlns:xlink="http://www.w3.org/1999/xlink" x="0px" y="0px"
	 width="100%" viewBox="0 0 1024 720" enable-background="new 0 0 1024 720" xml:space="preserve">
<path fill="#000000" opacity="1.000000" stroke="none" 
	d="
M349.563599,619.401855 
	C336.773621,602.985168 336.420593,583.837646 348.404541,569.596680 
	C356.078217,560.477783 371.901550,556.098450 383.625732,559.848694 
	C396.403351,563.935913 405.218719,575.042114 406.135620,588.208069 
	C407.049316,601.328186 397.934723,613.034424 384.401520,616.012329 
	C381.489624,616.653076 378.517822,617.021667 374.966339,617.617493 
	C379.186493,623.391113 385.187439,625.396606 391.287476,626.216370 
	C408.120300,628.478577 423.582703,624.572693 436.318512,613.106812 
	C447.413147,603.118530 449.534180,589.499146 448.337006,575.502136 
	C446.752625,556.977844 440.323547,539.509460 435.354736,521.733826 
	C434.339386,518.101501 432.362152,518.302673 429.356323,518.805237 
	C392.555511,524.958557 359.340881,517.009705 331.307770,491.934509 
	C307.304413,470.463928 294.225281,443.528992 294.704285,410.781464 
	C294.994537,390.938934 302.537903,373.545868 313.015594,357.136078 
	C327.253967,334.836456 346.182190,316.806519 365.513336,299.132263 
	C369.938599,295.086273 374.300293,290.952301 378.950775,287.178619 
	C381.365387,285.219269 381.428894,283.357666 380.596771,280.683899 
	C373.400543,257.561188 370.142090,233.894760 371.918976,209.712433 
	C373.821594,183.818481 382.363495,160.317154 398.733765,139.939224 
	C402.632935,135.085495 407.427795,131.180161 413.321503,128.883911 
	C419.320496,126.546646 424.648010,127.205154 429.151611,132.323746 
	C439.554413,144.147049 447.303802,157.529282 451.422150,172.673508 
	C466.164337,226.884766 452.836670,274.226440 414.201935,314.114044 
	C405.835449,322.751862 402.674347,329.752289 406.742493,340.995911 
	C409.892731,349.702545 411.411530,359.020721 413.361511,368.129944 
	C414.146179,371.795532 415.836609,373.046661 419.536987,372.769714 
	C431.986603,371.837952 444.172668,373.293274 455.812866,377.963745 
	C459.979370,379.635498 460.731018,376.984711 461.608490,374.166412 
	C466.576843,358.209015 476.099854,345.477936 489.038788,335.098328 
	C502.671112,324.162476 518.621521,318.728180 535.426453,315.245758 
	C559.252686,310.308350 582.463623,312.384155 604.940979,321.665344 
	C619.851624,327.822144 632.062378,337.793365 642.909729,349.551453 
	C644.133423,350.877869 645.157837,352.841034 647.277832,352.318604 
	C649.389099,351.798309 649.492493,349.641357 649.851990,347.851044 
	C657.597412,309.278870 649.856812,273.923035 626.537842,242.429977 
	C605.791016,214.410660 577.482727,197.940720 543.281738,191.565994 
	C539.588745,190.877670 535.745422,191.001831 531.143127,189.416641 
	C537.025269,186.705963 542.539062,186.435516 547.800964,185.886322 
	C602.072083,180.221893 648.950134,196.096527 686.961304,235.542740 
	C711.615662,261.127930 725.886230,292.014221 730.441772,327.413086 
	C734.858398,361.732025 728.771729,394.195190 712.816956,424.571533 
	C697.222046,454.262573 674.026062,476.822968 644.312134,492.526611 
	C641.896484,493.803284 639.829712,495.250977 638.274719,497.548126 
	C615.244263,531.571472 584.525757,556.727478 548.551819,576.057129 
	C515.483826,593.825317 481.308014,609.114197 446.548676,623.176697 
	C438.216949,626.547485 431.128906,632.543213 422.219910,634.675232 
	C400.258942,639.930725 378.976166,639.374329 359.060516,627.241699 
	C355.624481,625.148499 352.533539,622.628723 349.563599,619.401855 
M398.732086,478.756104 
	C399.188782,478.958466 399.647888,479.155548 400.101746,479.364136 
	C402.431519,480.434814 406.245544,481.007751 405.083557,484.350922 
	C403.914490,487.714539 400.276886,486.415283 397.603912,485.719055 
	C390.609161,483.897125 384.148376,480.825623 378.239899,476.679047 
	C360.931824,464.532318 349.825989,441.572998 359.420441,417.259735 
	C366.602905,399.058685 379.077606,386.207428 396.607635,378.168091 
	C400.583923,376.344482 401.727203,374.278198 400.742615,370.210815 
	C398.670074,361.649109 396.822845,353.032043 394.948059,344.423584 
	C394.219635,341.078918 393.895752,337.617340 391.723236,334.449402 
	C390.250671,335.391876 388.947784,336.110657 387.770660,336.996490 
	C372.291901,348.644745 358.129944,361.686951 345.383392,376.312408 
	C332.162567,391.482025 322.611847,408.344360 320.676147,428.702942 
	C318.385803,452.792084 325.584137,473.576813 344.185822,489.465363 
	C368.814484,510.501770 397.701904,512.615601 428.073944,507.098450 
	C430.907257,506.583740 431.553467,505.127625 430.974060,502.521698 
	C428.846649,492.953186 426.865448,483.351990 424.709045,473.790161 
	C420.320831,454.332214 415.854584,434.891876 411.420288,415.444336 
	C410.739471,412.458496 409.927277,410.191559 405.809387,411.375549 
	C392.478485,415.208405 379.587921,429.164246 378.243225,441.644836 
	C376.424011,458.529572 382.874664,470.529663 398.732086,478.756104 
M554.415527,325.289429 
	C545.219971,325.117218 536.190369,326.440277 527.154297,328.011353 
	C510.110992,330.974609 497.414001,339.840515 489.132629,355.059906 
	C487.276917,358.470276 486.173920,361.879974 488.572662,365.374207 
	C490.971283,368.868225 494.550964,370.059296 498.637756,369.565552 
	C501.768951,369.187256 504.875275,368.576538 507.977509,367.989227 
	C528.721985,364.062164 548.973938,380.530823 549.315979,401.623688 
	C549.547363,415.887238 538.731750,430.148499 523.983765,435.425690 
	C516.181030,438.217743 508.143494,438.508759 500.256409,437.990906 
	C498.961731,440.492889 500.556641,442.444580 500.105621,444.362061 
	C498.856964,449.670898 501.995117,450.405945 506.177399,450.806183 
	C515.989685,451.745209 525.740173,451.914764 535.581482,450.889282 
	C562.230835,448.112396 585.618225,437.819611 606.275513,420.991394 
	C607.947144,419.629669 609.456909,418.168854 609.690308,415.717804 
	C610.876282,403.264709 611.392456,390.837311 609.600952,378.380310 
	C605.285400,348.372437 584.390991,327.894073 554.415527,325.289429 
M504.045929,575.514648 
	C529.963196,558.413147 552.552124,537.878601 571.296204,511.458740 
	C561.820801,511.324615 553.859802,511.056183 545.972046,509.872223 
	C525.545044,506.806091 506.139313,500.724609 488.191528,490.329315 
	C486.426605,489.307007 484.839203,488.338593 482.946533,490.454254 
	C474.008942,500.445374 463.073181,507.557800 450.608032,512.360168 
	C447.960663,513.380066 447.121368,514.928467 447.932770,517.765137 
	C449.715057,523.996094 451.227264,530.303955 452.869720,536.575256 
	C458.336945,557.450439 465.302124,578.160034 459.849945,600.238220 
	C459.807312,600.411011 460.213959,600.694824 460.507202,601.040283 
	C461.089142,600.873901 461.780304,600.811279 462.330048,600.499451 
	C476.222504,592.618286 490.187500,584.856873 504.045929,575.514648 
M436.385223,220.902603 
	C437.134857,218.873779 437.966278,216.870911 438.619904,214.811615 
	C441.503357,205.726959 443.526855,196.608475 441.730438,186.918396 
	C440.010132,177.639252 435.043243,173.160660 425.732056,173.191147 
	C421.245483,173.205841 417.255676,174.634094 413.450226,176.827698 
	C406.051544,181.092651 401.327820,187.738373 397.940002,195.250000 
	C386.989868,219.529251 384.471832,244.747955 390.312134,270.756470 
	C391.539673,276.223175 392.562256,276.586639 397.171509,273.215424 
	C415.330231,259.934113 426.969147,241.723572 436.385223,220.902603 
M437.809601,474.905670 
	C439.424988,482.206665 440.972107,489.523621 442.678345,496.803314 
	C443.932861,502.155823 445.073608,502.734802 449.853882,500.364868 
	C457.439240,496.604218 463.707611,491.366364 468.499725,484.232330 
	C470.902863,480.654694 470.495605,478.699921 467.102478,476.097351 
	C454.476288,466.412964 443.578949,455.014771 434.609436,441.821655 
	C433.251190,439.823883 431.762634,437.914673 430.334320,435.964508 
	C431.054352,449.218353 434.608612,461.604553 437.809601,474.905670 
M471.087036,440.723846 
	C464.974030,420.488312 438.742584,407.452759 426.183380,410.248718 
	C439.229065,423.931213 453.671204,434.300110 471.087036,440.723846 
M579.911865,491.246643 
	C581.288635,493.466919 582.751892,494.041290 584.311035,491.429718 
	C588.484558,484.439178 592.129700,477.184235 595.095398,469.598206 
	C595.570862,468.382019 596.199951,467.003754 595.030273,465.878967 
	C593.806335,464.701965 592.238525,465.023529 590.787109,465.414551 
	C588.965088,465.905334 587.192200,466.851898 586.470093,468.551849 
	C583.448425,475.665039 579.246704,482.440247 579.911865,491.246643 
z"/>
</svg>